<svg width="522" height="566" viewBox="0 0 522 566" fill="none" xmlns="http://www.w3.org/2000/svg">
<path d="M113.739 318.776C132.09 444.636 215.162 535.177 298.967 518.619C392.356 500.181 436.115 388.54 417.763 262.681C399.412 136.822 316.34 46.7845 232.494 62.8838C135.679 81.4141 95.3873 192.917 113.739 318.776Z" fill="black" stroke="black" stroke-miterlimit="10"/>
<path d="M129.562 314.144C146.242 428.628 220.504 511.189 295.134 496.42C378.287 479.999 416.947 378.679 400.268 264.195C383.588 149.71 309.367 67.5623 234.696 81.9187C148.525 98.4767 112.882 199.66 129.562 314.144Z" fill="white" stroke="black" stroke-miterlimit="10"/>
<path d="M430.772 307.493C430.772 307.493 401.736 309.007 357.652 315.428C350.8 295.476 342.807 273.827 333.713 251.398C386.158 244.426 445.087 241.72 508.868 246.948L496.553 190.348L440.356 205.806C440.356 205.806 388.972 206.173 318.787 216.263C301.333 177.139 280.616 137.005 256.392 100.082C266.22 63.7094 274.254 43.5279 274.254 43.5279L240.405 31.3272C236.45 41.418 232.82 51.7381 229.395 62.2417C225.153 56.7835 220.79 51.417 216.345 46.234L185.799 70.8647C185.799 70.8647 197.748 84.6248 215.651 111.044C204.967 154.893 198.034 200.072 193.629 242.729C150.442 255.205 106.928 271.9 68.0639 294.192L81.3586 329.142C81.3586 329.142 121.202 305.888 190.081 283.734C188.246 309.419 187.268 333.546 186.778 355.195C143.672 369.643 100.322 388.448 61.9467 412.712L76.5056 447.067C76.5056 447.067 116.634 421.289 186.452 395.65C186.656 432.664 188.205 455.69 188.205 455.69L178.336 519.904L232.412 529.306C225.072 477.981 221.85 429.178 221.442 383.678C253.782 373.45 290.852 363.91 331.878 356.892C346.559 404.181 359.12 456.836 367.398 514.445L419.027 484.678L390.684 427.711C390.684 427.711 383.752 397.071 369.437 351.342C410.055 346.251 454.018 343.866 500.671 345.517L486.357 289.513L430.772 307.493ZM243.383 155.031C254.76 174.433 267.036 197.045 279.311 222.731C263.447 225.62 247.053 229.06 230.373 233.051C234.125 204.2 238.652 178.056 243.383 155.031ZM221.809 344.278C222.462 319.327 223.93 295.522 226.01 273.093C247.134 267.359 270.257 261.993 295.175 257.498C303.78 277.404 312.221 298.778 320.214 321.574C290.363 326.941 256.636 334.279 221.809 344.278Z" fill="#FF0000"/>
<path d="M237.836 476.88C255.739 485.411 274.376 489.081 293.217 485.32C369.437 470.229 404.468 374.505 388.645 266.029C379.102 200.485 350.311 145.995 313.975 116.044C337.383 145.307 348.109 191.862 340.483 230.757C320.989 248.646 311.569 259.7 295.379 279.698C281.472 296.898 295.379 321.941 332.163 310.337C336.201 309.052 362.056 292.861 367.154 275.248C373.434 253.507 358.916 229.427 360.384 230.528C374.494 241.261 383.058 280.569 374.943 292.173C364.707 306.805 347.946 322.446 313.322 328.271C333.427 349.92 335.14 370.147 335.344 376.477C337.016 423.812 282.94 456.011 276.538 459.818C270.339 463.487 264.956 465.964 261.245 467.477C253.374 471.193 245.014 474.77 237.836 476.88Z" fill="black"/>
<path d="M144.529 298.457C144.529 298.457 147.057 298.687 146.323 295.384C145.589 292.128 141.96 281.762 150.279 280.11C152.318 280.11 154.112 280.11 154.112 280.11C154.112 280.11 150.809 304.099 157.375 315.199C163.941 326.299 170.506 338.362 184.29 339.141C198.075 339.875 216.63 340.013 228.293 333.637C239.957 327.216 243.79 312.905 242.322 307.998C240.854 303.09 235.716 297.815 217.405 289.467C199.135 281.165 186.126 274.423 173.157 273.414C160.189 272.405 143.754 273.551 140.94 275.478C138.167 277.404 138.412 281.716 139.023 285.614C139.635 289.513 140.695 295.476 144.529 298.457Z" fill="black"/>
<path d="M278.699 369.781C283.136 369.781 286.733 365.735 286.733 360.745C286.733 355.754 283.136 351.709 278.699 351.709C274.262 351.709 270.665 355.754 270.665 360.745C270.665 365.735 274.262 369.781 278.699 369.781Z" fill="black"/>
<path d="M307.083 403.355C311.52 403.355 315.117 399.31 315.117 394.319C315.117 389.329 311.52 385.284 307.083 385.284C302.646 385.284 299.049 389.329 299.049 394.319C299.049 399.31 302.646 403.355 307.083 403.355Z" fill="black"/>
<path d="M257.982 412.345C262.419 412.345 266.016 408.3 266.016 403.309C266.016 398.319 262.419 394.274 257.982 394.274C253.545 394.274 249.948 398.319 249.948 403.309C249.948 408.3 253.545 412.345 257.982 412.345Z" fill="black"/>
<path d="M214.509 444.177C218.946 444.177 222.543 440.132 222.543 435.141C222.543 430.151 218.946 426.105 214.509 426.105C210.072 426.105 206.475 430.151 206.475 435.141C206.475 440.132 210.072 444.177 214.509 444.177Z" fill="black"/>
<path d="M231.923 259.654C236.36 259.654 239.957 255.608 239.957 250.618C239.957 245.627 236.36 241.582 231.923 241.582C227.486 241.582 223.889 245.627 223.889 250.618C223.889 255.608 227.486 259.654 231.923 259.654Z" fill="black"/>
<path d="M281.839 250.664C286.276 250.664 289.873 246.618 289.873 241.628C289.873 236.638 286.276 232.592 281.839 232.592C277.402 232.592 273.805 236.638 273.805 241.628C273.805 246.618 277.402 250.664 281.839 250.664Z" fill="black"/>
<path d="M181.558 240.619C185.995 240.619 189.592 236.573 189.592 231.583C189.592 226.593 185.995 222.547 181.558 222.547C177.121 222.547 173.524 226.593 173.524 231.583C173.524 236.573 177.121 240.619 181.558 240.619Z" fill="black"/>
<path d="M325.924 210.989C330.361 210.989 333.958 206.943 333.958 201.953C333.958 196.963 330.361 192.917 325.924 192.917C321.487 192.917 317.89 196.963 317.89 201.953C317.89 206.943 321.487 210.989 325.924 210.989Z" fill="black"/>
<path d="M187.757 195.715C192.194 195.715 195.791 191.669 195.791 186.679C195.791 181.689 192.194 177.643 187.757 177.643C183.32 177.643 179.723 181.689 179.723 186.679C179.723 191.669 183.32 195.715 187.757 195.715Z" fill="black"/>
<path d="M306.308 171.818C310.745 171.818 314.342 167.773 314.342 162.782C314.342 157.792 310.745 153.747 306.308 153.747C301.871 153.747 298.274 157.792 298.274 162.782C298.274 167.773 301.871 171.818 306.308 171.818Z" fill="black"/>
<path d="M360.18 413.951C360.18 419.546 356.143 424.041 351.208 424.041C346.233 424.041 342.236 419.5 342.236 413.951C342.236 413.767 342.236 413.584 342.236 413.446C342.481 418.17 345.988 421.886 350.229 421.886C354.675 421.886 358.222 417.849 358.222 412.85C358.222 408.08 354.919 404.135 350.719 403.86C350.882 403.86 351.045 403.86 351.167 403.86C356.143 403.86 360.18 408.401 360.18 413.951Z" fill="white"/>
<path d="M326.576 455.598C326.576 461.194 322.539 465.689 317.604 465.689C312.629 465.689 308.633 461.148 308.633 455.598C308.633 455.414 308.633 455.231 308.633 455.093C308.877 459.818 312.384 463.533 316.626 463.533C321.071 463.533 324.619 459.497 324.619 454.497C324.619 449.727 321.315 445.782 317.115 445.507C317.278 445.507 317.441 445.507 317.564 445.507C322.58 445.461 326.576 450.002 326.576 455.598Z" fill="white"/>
<path d="M280.453 468.532C280.453 474.128 276.415 478.623 271.481 478.623C266.505 478.623 262.509 474.082 262.509 468.532C262.509 468.349 262.509 468.165 262.509 468.028C262.754 472.752 266.261 476.467 270.502 476.467C274.947 476.467 278.495 472.431 278.495 467.432C278.495 462.661 275.192 458.717 270.991 458.442C271.155 458.442 271.318 458.442 271.44 458.442C276.456 458.442 280.453 462.982 280.453 468.532Z" fill="white"/>
<path d="M270.502 476.513C274.939 476.513 278.536 472.468 278.536 467.477C278.536 462.487 274.939 458.442 270.502 458.442C266.065 458.442 262.468 462.487 262.468 467.477C262.468 472.468 266.065 476.513 270.502 476.513Z" fill="black"/>
</svg>
