<svg width="152" height="71" viewBox="0 0 152 71" fill="none" xmlns="http://www.w3.org/2000/svg">
<g clip-path="url(#clip0_103_28)">
<path d="M138.031 12.011C138.109 12.1322 138.172 12.267 138.25 12.4017C138.172 12.2535 138.094 12.1322 138.031 12.011ZM130.875 16.9292C130.922 17.2121 130.969 17.4816 131 17.7511C130.969 17.4816 130.922 17.1987 130.875 16.9292ZM108.031 11.8627L107.344 12.1187C107.438 13.8435 107.328 15.4874 107.047 17.037L108.031 11.8627ZM98.9531 16.1746L99.0781 17.576C99.0313 17.0909 99 16.6327 98.9531 16.1746ZM25.8594 29.0293C25.8594 29.0832 25.8438 29.1371 25.8438 29.191C25.8594 29.1371 25.8594 29.0832 25.8594 29.0293L25.8906 28.8003C25.875 28.8811 25.875 28.9485 25.8594 29.0293Z" fill="white"/>
<path d="M138.031 12.0109C138.109 12.1322 138.172 12.2669 138.25 12.4017C138.172 12.2535 138.094 12.1322 138.031 12.0109ZM130.875 16.9291C130.922 17.2121 130.969 17.4816 131 17.7511C130.969 17.4816 130.922 17.1986 130.875 16.9291ZM138.031 12.0109C138.109 12.1322 138.172 12.2669 138.25 12.4017C138.172 12.2535 138.094 12.1322 138.031 12.0109ZM130.875 16.9291C130.922 17.2121 130.969 17.4816 131 17.7511C130.969 17.4816 130.922 17.1986 130.875 16.9291ZM102.391 13.9513C102.281 13.9917 102.188 14.0321 102.078 14.0725C102.094 14.1534 102.109 14.2342 102.125 14.3151L102.203 14.7193L102.219 14.8675C102.281 15.6895 102.344 16.5114 102.422 17.3334C102.766 17.0504 103.188 16.8079 103.703 16.6192C103.906 15.5817 104 14.4902 104 13.3584L102.391 13.9513ZM20.5781 26.4152C20.2969 26.5904 20.0156 26.7791 19.7656 26.9812C20.2813 27.7358 20.9063 28.6251 21.5625 29.5683C21.8125 29.9321 22.0781 30.3094 22.3438 30.6867L22.375 30.3094C22.4219 29.7704 22.4688 29.2584 22.5156 28.7733C22.6719 27.1429 22.8281 25.9032 22.9844 24.933L20.5781 26.4152Z" fill="white"/>
<path d="M150.563 13.4797C149.766 9.35646 147.859 5.98781 145.047 3.75103C140.172 -0.210494 133.094 0.261118 128.188 0.961796C125.844 1.29866 123.281 1.91849 120.953 2.68654C119.875 2.14756 118.609 1.85112 117.266 1.85112C116.781 1.85112 116.297 1.89154 115.797 1.97239C114.266 2.21493 112.25 2.94256 110.453 4.92332C109.328 4.81552 108.188 4.81552 107.141 4.97722C104.344 5.38146 102.453 6.71544 101.438 8.34586C101.25 8.22459 101.047 8.10332 100.844 7.99552C98.625 6.78281 95.9531 6.28426 93.5 6.63459C92.2969 6.80976 91.25 7.13315 90.3125 7.61824C89.25 7.53739 88.1406 7.59129 87.0313 7.75298C83 8.33239 80.125 10.1919 77.6094 11.8897C76.7031 12.496 75.4844 13.3988 74.1406 14.5846C72.6875 12.9272 69.7656 10.0437 64.9688 8.03595C62.9844 7.20053 55.3125 4.12832 46.4375 6.89061C37.9375 9.5451 34.25 15.703 33.5 17.0639C32.6563 16.754 31.2656 16.3498 29.4844 16.3498C29.125 16.3498 28.3125 16.3632 27.2813 16.5519C23.9687 17.1717 21.875 18.9504 21.2188 19.8801C20.8281 20.4056 20.5 20.985 20.1719 22.1843C19.1406 21.1871 17.9062 20.473 16.4844 20.0553C14.8594 19.5837 13.0469 19.5163 10.9687 19.8532C10.6875 19.8936 10.3906 19.961 10.1094 20.0148L9.60938 20.1361C9.0625 20.2843 8.53125 20.4595 8.03125 20.6616C4.51562 22.1438 3.82812 24.704 3.6875 25.755C3.57812 26.4287 2.59375 29.2719 2.0625 30.808C1.23437 33.2065 1.04687 33.7589 0.984375 34.2305C0.609375 37.1276 1.03125 41.5742 2.1875 46.7484C3.14062 51.0333 5.01562 57.4742 7.125 61.5704C8.54687 64.3462 11.375 66.0036 14.7031 66.0036C15.2344 66.0036 15.7656 65.9632 16.2969 65.8688C17.9531 65.5859 19.5938 64.9121 20.9063 63.9689C21 63.9015 21.0781 63.8342 21.1719 63.7668C22.5625 64.2384 24.4219 64.6157 26.4531 64.2788C27.625 64.0902 28.7031 63.686 29.6094 63.1065C31.3906 63.7129 33.4062 63.8881 35.3125 63.5782C35.5625 63.5377 36.0156 63.4569 36.5781 63.2952C41.7969 67.9304 48.3906 70.4771 55.0625 70.4771C56.3438 70.4771 57.6406 70.3828 58.9219 70.1942C67.8594 68.8467 74.8125 63.942 78.3281 56.5983C80.3125 56.76 82.3438 56.7061 84.3594 56.4097C87.4688 55.965 90.3125 54.9005 92.625 53.324C93.7188 53.8899 95.1563 54.3076 97.0156 54.3076C97.6094 54.3076 98.2344 54.2672 98.8594 54.1729C100.328 53.9573 101.828 53.5261 103.063 52.9602C103.75 52.6368 104.375 52.2865 104.891 51.8822C107.922 52.7042 110.594 52.6233 112.469 52.3538C115.219 51.9631 117.328 50.9659 118.766 49.4029C119 49.1469 119.563 48.5405 120.875 44.7946C121.922 46.4654 123.781 47.6512 126.031 48.0959C127.25 48.3384 128.609 48.3654 129.969 48.1632C130.641 48.0689 131.188 47.9342 131.578 47.8399L131.656 47.8264C132.063 47.7321 133.094 47.503 134.141 47.0448C134.922 46.708 135.625 46.2903 136.219 45.7917C138.344 44.9428 140.25 43.7705 142.016 42.2075L142.109 42.1266C144.031 40.4019 147.234 36.5347 148.109 29.5279C149.984 26.2266 151.016 22.1034 151.016 17.832C150.969 16.3498 150.828 14.8676 150.563 13.4797ZM22.5156 28.7868C22.4687 29.2584 22.4219 29.7704 22.375 30.3229L22.3437 30.7002C22.0781 30.3229 21.8281 29.9456 21.5625 29.5818C20.9062 28.6386 20.2969 27.7493 19.7656 26.9947C20.0156 26.7926 20.2813 26.6039 20.5781 26.4287L22.9844 24.96C22.8281 25.9167 22.6719 27.1564 22.5156 28.7868ZM25.8594 29.0293C25.8594 29.0832 25.8438 29.1371 25.8438 29.2045C25.8438 29.1371 25.8594 29.0832 25.8594 29.0293C25.8594 28.962 25.875 28.8811 25.875 28.8003L25.8594 29.0293ZM98.9375 16.1881C98.9844 16.6327 99.0313 17.0909 99.0781 17.5894L98.9375 16.1881ZM103.703 16.6193C103.203 16.8079 102.766 17.0504 102.422 17.3334C102.344 16.498 102.266 15.6895 102.219 14.8676L102.203 14.7193L102.125 14.3151C102.109 14.2343 102.094 14.1534 102.078 14.0726C102.172 14.0321 102.281 13.9917 102.391 13.9513L104.016 13.3449C104 14.4903 103.906 15.5817 103.703 16.6193ZM107.031 17.037C107.328 15.4874 107.422 13.8435 107.328 12.1187L108.016 11.8627L107.031 17.037ZM130.875 16.9292C130.922 17.2121 130.969 17.4816 131 17.7511C130.969 17.4816 130.922 17.1987 130.875 16.9292ZM138.031 12.0109C138.109 12.1322 138.172 12.267 138.25 12.4017C138.172 12.2535 138.094 12.1322 138.031 12.0109Z" fill="white"/>
<path d="M22.5156 28.7868C22.4688 29.2584 22.4219 29.7705 22.375 30.3229L22.3438 30.7002C22.0781 30.3229 21.8281 29.9456 21.5625 29.5818C21.8281 29.2719 22.1406 29.0024 22.5156 28.7868Z" fill="white"/>
<path d="M22.9844 24.9465C22.8281 25.9167 22.6719 27.1564 22.5156 28.7868C22.4688 29.2584 22.4219 29.7704 22.375 30.3229L22.3438 30.7002C22.0781 30.3229 21.8281 29.9456 21.5625 29.5818C20.9063 28.6386 20.2969 27.7492 19.7656 26.9947C20.0156 26.7926 20.2813 26.6039 20.5781 26.4287L22.9844 24.9465Z" fill="white"/>
<path d="M25.8907 28.8003L25.875 29.0294C25.875 29.0833 25.8594 29.1372 25.8594 29.2045C25.8594 29.1506 25.875 29.0967 25.875 29.0428C25.875 28.9485 25.875 28.8811 25.8907 28.8003Z" fill="white"/>
<path d="M108.031 11.8627L107.344 12.1187C107.437 13.8435 107.328 15.4874 107.047 17.037L108.031 11.8627ZM102.391 13.9513C102.281 13.9917 102.187 14.0321 102.078 14.0726C102.094 14.1534 102.109 14.2343 102.125 14.3151L102.203 14.7193L102.219 14.8676C102.281 15.6895 102.344 16.5115 102.422 17.3334C102.766 17.0504 103.187 16.8079 103.703 16.6193C103.906 15.5817 104 14.4903 104 13.3584L102.391 13.9513ZM98.9531 16.1746L99.0781 17.576C99.0312 17.0909 99 16.6327 98.9531 16.1746Z" fill="white"/>
<path opacity="0.58" d="M81.9375 37.1275H54.4844C53.5781 37.1275 52.8438 36.4942 52.8438 35.7127V25.6068C52.8438 24.8253 53.5781 24.192 54.4844 24.192H81.9375C82.8438 24.192 83.5781 24.8253 83.5781 25.6068V35.7127C83.5781 36.4942 82.8438 37.1275 81.9375 37.1275Z" fill="black"/>
<path d="M30.875 46.0881C33.4375 59.5897 45.9688 69.1701 58.7969 67.2432C73.0937 65.0873 79.9844 53.0141 77.4219 39.5126C74.8594 26.011 62.3438 16.4845 49.5 18.3575C34.6719 20.5269 28.2969 32.5866 30.875 46.0881Z" fill="black" stroke="black" stroke-miterlimit="10"/>
<path d="M37.9844 59.3067C36.9844 60.2634 35.7344 60.5194 35.125 60.6272C33.1094 60.9641 30.8125 60.4386 29.4219 59.3067C29.4063 59.2932 29.4063 59.2932 29.3907 59.2797C28.8125 60.3308 27.7188 61.0853 26.2813 61.3279C24.7657 61.5839 23.3125 61.1662 22.3438 60.7754C21.7656 60.5464 21.2188 60.2634 20.7344 59.94C20.4844 60.479 20.0313 61.0584 19.2344 61.6378C18.3438 62.2711 17.25 62.7292 16.1407 62.9179C15.8438 62.9718 15.5157 62.9987 15.1875 62.9987C13.5469 62.9987 11.7032 62.298 10.6719 60.2903C8.6719 56.4097 6.87503 50.2114 5.95315 46.0881C4.87503 41.2508 4.45315 37.0063 4.78128 34.4461C4.8594 33.8128 7.31253 27.3854 7.4844 25.9841C7.56253 25.3508 7.9844 24.0033 9.96878 23.1679C10.3282 23.0197 10.7032 22.8984 11.0469 22.8041C11.1719 22.7771 11.2813 22.7502 11.4063 22.7097C11.6407 22.6558 11.8594 22.6154 12.0469 22.5885C13.5625 22.3325 14.7657 22.3729 15.8438 22.6828C16.9844 23.0197 17.9063 23.6395 18.6407 24.5962L18.6875 24.6636C19.0469 25.1486 20.4063 27.1294 22.0313 29.4605C22.2813 29.8243 22.5469 30.2016 22.8125 30.5789L22.8438 30.2016C22.8907 29.6626 22.9375 29.1506 22.9844 28.6655C23.5938 22.5885 24.1094 21.8204 24.5 21.2814C25.2188 20.2708 26.5469 19.5836 28.3438 19.2737C28.5938 19.2333 29.1719 19.1525 29.9063 19.1255H30.0313C31.4844 19.0851 33.4688 19.2602 34.7813 20.3652C35.5157 20.985 35.8282 21.7261 36.3282 23.5182C36.6094 24.5288 36.9688 25.9032 37.3907 27.7223C38.1719 30.9966 39.0625 35.0525 39.8438 38.6367C40.1563 40.0785 40.4532 41.4259 40.7188 42.5847C41.1719 44.6059 41.6407 46.681 41.75 47.0583L41.7813 47.1526L41.8282 47.3817C41.9219 47.6647 39.4219 57.9188 37.9844 59.3067Z" fill="black"/>
<path d="M23.0156 28.6385C22.9688 29.1102 22.9219 29.6222 22.875 30.1747L22.8438 30.5519C22.5781 30.1747 22.3281 29.7974 22.0625 29.4336C22.3125 29.1371 22.6406 28.8676 23.0156 28.6385Z" fill="black"/>
<path d="M102.922 17.1986C103 18.0206 103.094 18.8425 103.203 19.678C103.656 18.6808 103.984 17.6163 104.203 16.4845C103.688 16.6731 103.266 16.9157 102.922 17.1986ZM136.188 15.0831C135.953 13.8839 135.594 13.2371 135.453 13.0619C135.328 13.0485 135.031 13.035 134.406 13.1158C134.359 13.1293 134.297 13.1293 134.25 13.1428C134.5 15.164 134.875 17.6298 135.219 19.368C135.328 19.934 135.484 20.7155 135.656 21.6183C136.344 19.8666 136.641 17.5086 136.188 15.0831Z" fill="black"/>
<path d="M147.734 13.8165C147.063 10.3266 145.516 7.53736 143.25 5.73177C139.469 2.64609 133.438 3.09075 129.234 3.68363C126.578 4.06092 123.609 4.84245 121.109 5.81262C121.016 5.85304 120.938 5.87999 120.844 5.92041C120.156 5.11194 119.031 4.61338 117.75 4.61338C117.469 4.61338 117.188 4.64033 116.906 4.68076C115.141 4.96372 113.656 6.09559 112.516 8.0494C111.078 7.60474 109.469 7.49694 108.188 7.68558C105.406 8.08982 104.297 9.88194 104.422 11.3911C104.578 13.1967 104.5 14.8945 104.203 16.471C103.984 17.6029 103.656 18.6674 103.203 19.6645C103.094 18.8291 103 18.0071 102.922 17.1852C102.844 16.3632 102.766 15.5413 102.719 14.7193L102.703 14.5711L102.625 14.1534C102.328 12.6038 101.203 11.189 99.5313 10.2727C98 9.43728 96.1875 9.08694 94.5469 9.32948C93.6563 9.45075 92.9219 9.70677 92.2813 10.0841C92.0781 10.2053 91.875 10.3535 91.7031 10.5018C91.6719 10.4883 91.625 10.4883 91.5938 10.4748C90.4844 10.2727 89.3125 10.2592 88.0781 10.4344C85.5781 10.7982 82.9531 11.9705 80.2812 13.9243C77.9063 15.676 76.0156 17.6433 74.8438 18.9908L74.8281 19.0042C73.4219 20.6616 72.2188 22.7097 71.4531 24.7848C70.9844 26.0514 70.5 27.8166 70.5625 29.5683C69.8281 30.7271 69.2031 31.9802 68.7344 33.2469C68.1719 34.7964 67.5625 37.1006 67.9844 39.2161C68.1719 40.1863 68.5938 41.0756 69.1875 41.7897L69.2031 41.8167C69.9844 42.7195 70.9219 43.4471 72.0313 44.013C70.5781 44.7676 69.7969 46.3037 70.125 48.0285C70.1406 48.1497 70.6875 50.8177 72.6406 51.9226C73.6719 52.502 76.75 53.6608 80.9688 53.6608C82 53.6608 83.0938 53.5935 84.25 53.4318C87.875 52.9063 91.0156 51.3836 93.0938 49.1199C93.4219 49.6993 94.5625 51.3028 97.4531 51.3028C97.8438 51.3028 98.2813 51.2758 98.75 51.2085C99.875 51.0468 101 50.7234 101.922 50.2922C102.453 50.0496 102.922 49.7667 103.281 49.4702C103.719 49.1064 104.031 48.7022 104.234 48.2575C107.469 49.6724 110.406 49.6724 112.359 49.3894C114.281 49.1199 115.656 48.5001 116.578 47.4895C117.203 46.8158 120.578 37.1814 120.25 35.4702C120.031 34.3248 119.188 33.3951 117.922 32.9369C117.297 32.7079 116.703 32.6405 116.172 32.5731C115.125 32.4384 113.922 32.3036 112.203 30.9158C112.078 30.8214 111.953 30.7002 111.828 30.5654C112.266 29.5413 112.672 28.396 113 27.1294C113.281 27.1698 113.578 27.1833 113.875 27.1833C114.281 27.1833 114.703 27.1563 115.109 27.089C115.781 26.9812 117.797 26.6578 119.016 25.0543C119.172 26.267 119.375 27.5202 119.625 28.8002C120.422 32.8965 122.063 39.0948 124.141 43.0698L124.156 43.1102C124.719 44.1613 125.812 44.9024 127.234 45.1719C127.656 45.2527 128.109 45.2931 128.594 45.2931C129 45.2931 129.422 45.2662 129.859 45.1988C130.359 45.1314 130.766 45.0236 131.125 44.9428L131.234 44.9158C131.563 44.835 132.328 44.6733 133.078 44.3499C133.688 44.0804 134.203 43.757 134.594 43.3663C134.625 43.3393 134.656 43.2989 134.688 43.2719C136.281 42.6925 138.109 41.7897 140.062 40.0785L140.078 40.065C143.188 37.3027 144.828 32.91 145.266 28.5981C147.219 25.4316 148.094 21.4162 148.094 17.7241C148.094 16.3632 147.969 15.0292 147.734 13.8165ZM132.938 30.0938C132.75 29.191 132.609 28.396 132.5 27.8435C132.172 26.1053 131.781 23.653 131.531 21.6183C131.578 21.6048 131.641 21.6048 131.688 21.5913C132.297 21.5105 132.609 21.524 132.734 21.5374C132.875 21.7126 133.25 22.3594 133.469 23.5586C133.938 25.9706 133.625 28.3286 132.938 30.0938ZM135.656 21.6183C135.469 20.7155 135.328 19.9205 135.219 19.368C134.891 17.6298 134.5 15.1774 134.25 13.1428C134.297 13.1293 134.359 13.1293 134.406 13.1158C135.016 13.035 135.328 13.0485 135.453 13.0619C135.594 13.2371 135.969 13.8839 136.188 15.0831C136.641 17.5085 136.344 19.8666 135.656 21.6183Z" fill="black"/>
<path d="M133.469 23.5587C133.234 22.3594 132.875 21.7126 132.734 21.5375C132.609 21.524 132.313 21.5105 131.688 21.5914C131.641 21.6048 131.578 21.6048 131.531 21.6183C131.781 23.6395 132.156 26.1053 132.5 27.8436C132.609 28.4095 132.766 29.191 132.938 30.0938C133.625 28.3287 133.938 25.9706 133.469 23.5587Z" fill="black"/>
<path d="M38.7813 47.988C38.9688 48.8639 38.125 49.4163 37.2813 49.5646C36.2344 49.7397 35 49.4568 34.3594 48.9312C33.9219 48.5809 31.4844 38.7445 30.7188 35.5645C30.1563 39.2161 29.4063 45.8186 29.3906 49.1738C29.3906 49.8745 28.9688 50.1844 28.4219 50.2787C27.2969 50.4673 25.5313 49.6454 24.7188 48.8774C24.0625 48.2845 20.6406 42.8946 17.3438 37.7339C17.7031 39.5529 18.0313 41.3855 18.4375 43.1911C18.9844 45.6435 19.6563 48.0824 20.5313 50.4C20.6094 50.7368 19.5938 51.6396 18.2656 51.8552C17.25 52.0169 16.7031 51.5184 16.3438 50.8177C14.4219 47.0987 12.7031 41.0082 11.8438 37.2084C10.7031 32.1015 10.4688 28.3017 10.7188 26.3883C10.7656 25.8628 11.9063 25.5259 12.7188 25.3912C14.6719 25.0678 15.4375 25.4316 16.0625 26.2266C16.875 27.345 23.8125 37.4105 25.6094 40.038C25.4844 36.4268 26.4688 23.9629 27.2969 22.8175C27.5469 22.4672 28.25 22.2112 29.0313 22.0764C30.3906 21.8474 32.0781 21.9551 32.625 22.4268C33.3281 23.0062 36.125 36.3056 37.6719 43.1911C38.2188 45.6165 38.6094 47.3951 38.75 47.8533C38.7656 47.9207 38.7813 47.9476 38.7813 47.988Z" fill="white"/>
<path d="M94.0781 16.8887C94.875 20.985 92.7969 27.1698 92.0156 27.7357C91.8437 27.8705 91.6093 27.9378 91.3281 27.9783C89.5937 28.2208 86.0781 26.9542 85.875 25.8358C85.8437 25.6606 85.8593 25.5259 85.9843 25.3642C87.2031 23.7607 89.7187 18.9503 89.4687 17.6972C89.4219 17.4546 89.2812 17.3468 89.0469 17.3738C87.7187 17.5624 83.875 21.7665 82.7343 23.1544C80.7656 25.5259 79.5156 28.0052 79.7187 29.0562C79.8437 29.73 80.2812 29.9186 85.4062 29.4874C90.4844 29.0697 94.4844 30.1342 95.1094 33.3546C95.8906 37.4239 92.5312 41.5202 86.4843 42.3826C81.6093 43.0833 77.9218 41.7358 77.1562 41.2777C76.75 41.0621 76.1875 40.0515 76.0312 39.243C75.9219 38.704 76.0469 38.0572 76.6719 37.9629C76.7969 37.9494 76.9531 37.9629 77.125 38.0033C78.6875 38.3402 81.125 38.4076 83.7812 38.0168C87.75 37.4509 91.4062 35.0794 91.1562 33.7858C90.7031 32.0476 79.0312 37.0601 74.5156 31.8185C74.2031 31.4412 73.9843 30.9561 73.875 30.4172C73.3906 27.8705 74.9219 23.6933 77.4218 20.7559C79.9687 17.8184 84.3281 13.8839 88.6094 13.264C89.3906 13.1562 90.2031 13.1428 90.9531 13.2775C92.8125 13.6278 93.7344 15.0561 94.0781 16.8887Z" fill="white"/>
<path d="M106.906 27.9513C107.141 28.7463 108.313 31.6434 110.078 33.0717C114.141 36.3191 116.922 34.8773 117.156 36.063C117.359 37.0736 116.969 38.0034 114.609 38.3402C112.922 38.5828 110.484 38.5154 107.844 37.1814C105.703 36.1304 103.031 33.166 102.156 31.5625C102.766 34.2979 103.438 37.1545 104.031 38.8118C104.109 39.1891 102.672 39.9168 100.984 40.1593C99.9688 40.3075 99.0469 40.1863 98.7344 39.6069C96.8438 36.0496 95.2344 30.2285 94.4844 26.3613C93.4219 20.8098 93.2188 15.164 93.6406 13.1563C93.7656 12.5499 94.3594 12.2939 95.1094 12.1861C96.875 11.9301 99.1875 13.0619 99.5156 14.7597C99.5313 14.8675 99.5469 14.9349 99.5625 15.0292C99.8438 18.9907 100.391 22.9119 101.156 26.8464C103.141 25.7954 108.469 20.9985 107.656 11.3372C107.625 10.9195 108.094 10.65 108.75 10.5557C110.406 10.3131 112.906 10.933 113.109 11.984C114 20.729 108.031 27.2641 106.906 27.9513Z" fill="white"/>
<path d="M117.531 7.49696C117.891 7.44306 118.297 7.48349 118.359 7.77993C118.516 8.52103 116.984 10.4075 117.125 11.0138C117.156 11.189 117.266 11.2698 117.5 11.2698C118.547 11.2698 119.125 11.8762 119.328 12.752C119.828 15.0427 119 15.7434 117.281 16.0129C115.906 16.2285 114.484 15.7973 114.156 14.2881C114.125 14.1534 114.109 14.0456 114.078 13.9513C113.922 12.1053 115.578 7.82035 117.531 7.49696Z" fill="white"/>
<path d="M144.641 14.369C145.703 19.8935 144.094 26.6308 140.547 29.7839C138.516 31.576 136.781 32.2363 135.141 32.7213C135.281 33.4624 133.5 33.8263 133.109 33.9206C132.766 34.0014 132.453 34.0823 132.094 34.1362C131.109 34.2709 130.125 34.1766 129.812 33.5972C127.891 29.9052 126.281 23.8416 125.547 20.0148C125.063 17.4681 124.797 15.2448 124.672 13.3853C124.406 13.4931 124.172 13.5201 123.984 13.5605C123.906 13.574 119.516 12.3882 119.172 10.5557C118.984 9.57201 124.625 7.26786 129.812 6.52676C134.219 5.89346 138.641 5.81261 141.125 7.86074C142.969 9.316 144.125 11.701 144.641 14.369ZM133.922 10.5152C132.984 10.65 131.938 10.906 130.859 11.162C131.031 13.3314 131.625 17.4277 132.109 19.934C132.422 21.5644 133.047 24.7713 133.734 27.7088C134.437 27.3989 134.906 27.2641 136.203 26.2401C139.359 23.8012 140.109 18.4787 139.391 14.7463C139.094 13.1832 138.516 11.9166 137.781 11.2563C136.844 10.3805 135.5 10.2862 133.922 10.5152Z" fill="white"/>
<path d="M34.4844 37.37C37.125 51.2758 49.0937 61.2739 61.1719 59.4414C74.625 57.4067 80.9219 45.0775 78.2812 31.1717C75.6406 17.266 63.6719 7.32175 51.5937 9.10039C37.6562 11.1485 31.8437 23.4643 34.4844 37.37Z" fill="black" stroke="black" stroke-miterlimit="10"/>
<path d="M37.25 37.7205C39.6562 50.3596 50.3594 59.4819 61.1094 57.8515C73.0937 56.0324 78.6562 44.8485 76.25 32.1959C73.8437 19.5432 63.1562 10.4749 52.3906 12.0649C39.9687 13.8839 34.8437 25.0678 37.25 37.7205Z" fill="white" stroke="black" stroke-miterlimit="10"/>
<path d="M80.6406 36.9793C80.6406 36.9793 76.4531 37.1545 70.1094 37.8552C69.125 35.6454 67.9688 33.2604 66.6563 30.781C74.2031 30.013 82.7031 29.7165 91.8906 30.2825L90.125 24.0303L82.0312 25.7415C82.0312 25.7415 74.625 25.782 64.5156 26.9003C62 22.575 59.0156 18.1419 55.5313 14.0591C56.9375 10.0436 58.1094 7.80687 58.1094 7.80687L53.2344 6.45941C52.6719 7.5778 52.1406 8.70967 51.6406 9.86848C51.0312 9.26213 50.4062 8.66924 49.7656 8.10331L45.3438 10.8386C45.3438 10.8386 47.0625 12.3613 49.6406 15.2718C48.1094 20.1092 47.1094 25.1082 46.4688 29.8243C40.25 31.1987 33.9844 33.0448 28.375 35.5106L30.2969 39.3778C30.2969 39.3778 36.0313 36.8042 45.9531 34.3653C45.6875 37.2084 45.5469 39.8629 45.4844 42.2614C39.2812 43.8648 33.0312 45.9399 27.5 48.6214L29.5938 52.4077C29.5938 52.4077 35.375 49.5646 45.4375 46.7215C45.4688 50.8042 45.6875 53.3509 45.6875 53.3509L44.2656 60.4386L52.0625 61.4761C51.0156 55.8033 50.5469 50.4135 50.4844 45.3875C55.1406 44.2556 60.4844 43.2046 66.3906 42.4231C68.5 47.6512 70.3125 53.4587 71.5 59.8187L78.9375 56.5309L74.8594 50.2653C74.8594 50.2653 73.8594 46.8831 71.7969 41.8302C77.6562 41.2642 83.9844 41.0082 90.7031 41.1834L88.6406 34.9986L80.6406 36.9793ZM53.6406 20.1361C55.2812 22.2786 57.0469 24.7714 58.8125 27.6145C56.5313 27.9379 54.1719 28.3152 51.7656 28.7464C52.3125 25.5664 52.9531 22.6828 53.6406 20.1361ZM50.5313 41.0487C50.625 38.2864 50.8438 35.6588 51.1406 33.1795C54.1875 32.5462 57.5156 31.9533 61.1094 31.4548C62.3438 33.6511 63.5625 36.0092 64.7187 38.5289C60.4062 39.1218 55.5469 39.9437 50.5313 41.0487Z" fill="#FF0000"/>
<path d="M52.8438 55.6955C55.4219 56.6387 58.1094 57.0429 60.8281 56.6252C71.8125 54.9544 76.8594 44.3768 74.5781 32.3979C73.2031 25.1621 69.0625 19.139 63.8125 15.8242C67.1875 19.0581 68.7344 24.1919 67.625 28.4903C64.8125 30.4711 63.4531 31.6838 61.125 33.8936C59.125 35.7935 61.125 38.5558 66.4219 37.2757C67 37.141 70.7344 35.3489 71.4688 33.3951C72.375 30.9966 70.2813 28.3286 70.5 28.4499C72.5312 29.6357 73.7656 33.9745 72.5938 35.2546C71.125 36.8715 68.7031 38.5962 63.7187 39.243C66.6094 41.628 66.8594 43.8648 66.8906 44.5655C67.125 49.7936 59.3438 53.3509 58.4219 53.7686C57.5313 54.1729 56.75 54.4423 56.2187 54.6175C55.0781 55.0622 53.875 55.4529 52.8438 55.6955Z" fill="black"/>
<path d="M39.4062 35.9822C39.4062 35.9822 39.7656 36.0092 39.6562 35.6453C39.5469 35.2815 39.0312 34.1362 40.2344 33.961C40.5312 33.961 40.7812 33.961 40.7812 33.961C40.7812 33.961 40.2969 36.6155 41.25 37.8417C42.1875 39.0679 43.1406 40.4019 45.125 40.4827C47.1094 40.5636 49.7812 40.577 51.4687 39.8764C53.1562 39.1622 53.7031 37.5857 53.5 37.0467C53.2969 36.5077 52.5469 35.9148 49.9062 34.9986C47.2656 34.0823 45.4062 33.3412 43.5312 33.2199C41.6562 33.0986 39.2969 33.2334 38.8906 33.449C38.4844 33.6646 38.5312 34.1362 38.6094 34.5674C38.6875 34.9986 38.8437 35.6588 39.4062 35.9822Z" fill="black"/>
<path d="M58.7344 43.8648C59.373 43.8648 59.8906 43.4184 59.8906 42.8677C59.8906 42.317 59.373 41.8706 58.7344 41.8706C58.0958 41.8706 57.5781 42.317 57.5781 42.8677C57.5781 43.4184 58.0958 43.8648 58.7344 43.8648Z" fill="black"/>
<path d="M62.8281 47.5703C63.4667 47.5703 63.9844 47.1239 63.9844 46.5732C63.9844 46.0225 63.4667 45.5761 62.8281 45.5761C62.1895 45.5761 61.6719 46.0225 61.6719 46.5732C61.6719 47.1239 62.1895 47.5703 62.8281 47.5703Z" fill="black"/>
<path d="M55.75 48.5675C56.3886 48.5675 56.9062 48.1211 56.9062 47.5704C56.9062 47.0197 56.3886 46.5732 55.75 46.5732C55.1114 46.5732 54.5938 47.0197 54.5938 47.5704C54.5938 48.1211 55.1114 48.5675 55.75 48.5675Z" fill="black"/>
<path d="M49.4844 52.0843C50.123 52.0843 50.6406 51.6379 50.6406 51.0872C50.6406 50.5365 50.123 50.0901 49.4844 50.0901C48.8458 50.0901 48.3281 50.5365 48.3281 51.0872C48.3281 51.6379 48.8458 52.0843 49.4844 52.0843Z" fill="black"/>
<path d="M52 31.6973C52.6386 31.6973 53.1562 31.2509 53.1562 30.7002C53.1562 30.1495 52.6386 29.7031 52 29.7031C51.3614 29.7031 50.8438 30.1495 50.8438 30.7002C50.8438 31.2509 51.3614 31.6973 52 31.6973Z" fill="black"/>
<path d="M59.1875 30.7002C59.8261 30.7002 60.3437 30.2537 60.3437 29.7031C60.3437 29.1524 59.8261 28.7059 59.1875 28.7059C58.5489 28.7059 58.0312 29.1524 58.0312 29.7031C58.0312 30.2537 58.5489 30.7002 59.1875 30.7002Z" fill="black"/>
<path d="M44.7344 29.5952C45.373 29.5952 45.8906 29.1488 45.8906 28.5981C45.8906 28.0474 45.373 27.601 44.7344 27.601C44.0958 27.601 43.5781 28.0474 43.5781 28.5981C43.5781 29.1488 44.0958 29.5952 44.7344 29.5952Z" fill="black"/>
<path d="M65.5313 26.3209C66.1698 26.3209 66.6875 25.8745 66.6875 25.3238C66.6875 24.7731 66.1698 24.3267 65.5313 24.3267C64.8927 24.3267 64.375 24.7731 64.375 25.3238C64.375 25.8745 64.8927 26.3209 65.5313 26.3209Z" fill="black"/>
<path d="M45.625 24.6366C46.2636 24.6366 46.7813 24.1902 46.7813 23.6395C46.7813 23.0888 46.2636 22.6424 45.625 22.6424C44.9864 22.6424 44.4688 23.0888 44.4688 23.6395C44.4688 24.1902 44.9864 24.6366 45.625 24.6366Z" fill="black"/>
<path d="M62.7031 21.9956C63.3417 21.9956 63.8594 21.5492 63.8594 20.9985C63.8594 20.4478 63.3417 20.0013 62.7031 20.0013C62.0645 20.0013 61.5469 20.4478 61.5469 20.9985C61.5469 21.5492 62.0645 21.9956 62.7031 21.9956Z" fill="black"/>
<path d="M70.4687 48.7426C70.4687 49.3625 69.8906 49.861 69.1719 49.861C68.4531 49.861 67.875 49.3625 67.875 48.7426C67.875 48.7292 67.875 48.7022 67.875 48.6887C67.9063 49.2142 68.4062 49.6185 69.0312 49.6185C69.6719 49.6185 70.1875 49.1738 70.1875 48.6214C70.1875 48.0958 69.7031 47.6647 69.1094 47.6242C69.125 47.6242 69.1562 47.6242 69.1719 47.6242C69.8906 47.6242 70.4687 48.1228 70.4687 48.7426Z" fill="white"/>
<path d="M65.625 53.3375C65.625 53.9573 65.0469 54.4559 64.3281 54.4559C63.6094 54.4559 63.0312 53.9573 63.0312 53.3375C63.0312 53.324 63.0312 53.2971 63.0312 53.2836C63.0625 53.8091 63.5625 54.2133 64.1875 54.2133C64.8281 54.2133 65.3437 53.7687 65.3437 53.2162C65.3437 52.6907 64.8594 52.2595 64.2656 52.2191C64.2812 52.2191 64.3125 52.2191 64.3281 52.2191C65.0469 52.2191 65.625 52.7176 65.625 53.3375Z" fill="white"/>
<path d="M58.9844 54.7658C58.9844 55.3856 58.4062 55.8842 57.6875 55.8842C56.9687 55.8842 56.3906 55.3856 56.3906 54.7658C56.3906 54.7523 56.3906 54.7253 56.3906 54.7119C56.4219 55.2374 56.9219 55.6416 57.5469 55.6416C58.1875 55.6416 58.7031 55.1969 58.7031 54.6445C58.7031 54.119 58.2187 53.6878 57.625 53.6474C57.6406 53.6474 57.6719 53.6474 57.6875 53.6474C58.4062 53.6608 58.9844 54.1594 58.9844 54.7658Z" fill="white"/>
<path d="M57.5469 55.6416C58.1854 55.6416 58.7031 55.1952 58.7031 54.6445C58.7031 54.0938 58.1854 53.6474 57.5469 53.6474C56.9083 53.6474 56.3906 54.0938 56.3906 54.6445C56.3906 55.1952 56.9083 55.6416 57.5469 55.6416Z" fill="black"/>
</g>
<defs>
<clipPath id="clip0_103_28">
<rect width="152" height="71" fill="white"/>
</clipPath>
</defs>
</svg>
