<svg width="271" height="201" viewBox="0 0 271 201" fill="none" xmlns="http://www.w3.org/2000/svg">
<path d="M223.617 49.62C223.723 49.8 223.808 50 223.914 50.2C223.808 49.98 223.702 49.8 223.617 49.62ZM213.921 56.92C213.984 57.34 214.048 57.74 214.09 58.14C214.048 57.74 213.984 57.32 213.921 56.92ZM182.967 49.4L182.036 49.78C182.163 52.34 182.015 54.78 181.634 57.08L182.967 49.4ZM170.667 55.8L170.836 57.88C170.772 57.16 170.73 56.48 170.667 55.8ZM71.6245 74.88C71.6245 74.96 71.6033 75.04 71.6033 75.12C71.6245 75.04 71.6245 74.96 71.6245 74.88L71.6668 74.54C71.6457 74.66 71.6457 74.76 71.6245 74.88Z" fill="white"/>
<path d="M223.617 49.62C223.723 49.8 223.808 50 223.914 50.2C223.808 49.98 223.702 49.8 223.617 49.62ZM213.921 56.92C213.984 57.34 214.048 57.74 214.09 58.14C214.048 57.74 213.984 57.32 213.921 56.92ZM223.617 49.62C223.723 49.8 223.808 50 223.914 50.2C223.808 49.98 223.702 49.8 223.617 49.62ZM213.921 56.92C213.984 57.34 214.048 57.74 214.09 58.14C214.048 57.74 213.984 57.32 213.921 56.92ZM175.324 52.5C175.176 52.56 175.049 52.62 174.901 52.68C174.922 52.8 174.943 52.92 174.964 53.04L175.07 53.64L175.091 53.86C175.176 55.08 175.261 56.3 175.367 57.52C175.832 57.1 176.404 56.74 177.103 56.46C177.378 54.92 177.505 53.3 177.505 51.62L175.324 52.5ZM64.4684 71C64.0873 71.26 63.7062 71.54 63.3674 71.84C64.0661 72.96 64.913 74.28 65.8022 75.68C66.1409 76.22 66.5009 76.78 66.8608 77.34L66.9031 76.78C66.9667 75.98 67.0302 75.22 67.0937 74.5C67.3054 72.08 67.5171 70.24 67.7288 68.8L64.4684 71Z" fill="white"/>
<path d="M240.597 51.8C239.517 45.68 236.934 40.68 233.124 37.36C226.518 31.48 216.927 32.18 210.279 33.22C207.103 33.72 203.631 34.64 200.477 35.78C199.016 34.98 197.301 34.54 195.48 34.54C194.824 34.54 194.167 34.6 193.49 34.72C191.415 35.08 188.684 36.16 186.249 39.1C184.725 38.94 183.179 38.94 181.761 39.18C177.971 39.78 175.409 41.76 174.033 44.18C173.779 44 173.504 43.82 173.228 43.66C170.222 41.86 166.602 41.12 163.278 41.64C161.647 41.9 160.229 42.38 158.958 43.1C157.519 42.98 156.016 43.06 154.512 43.3C149.05 44.16 145.154 46.92 141.746 49.44C140.518 50.34 138.866 51.68 137.046 53.44C135.077 50.98 131.117 46.7 124.618 43.72C121.929 42.48 111.533 37.92 99.5079 42.02C87.9903 45.96 82.9938 55.1 81.9775 57.12C80.8343 56.66 78.95 56.06 76.5364 56.06C76.0494 56.06 74.9485 56.08 73.5511 56.36C69.0627 57.28 66.2257 59.92 65.3364 61.3C64.8071 62.08 64.3625 62.94 63.9179 64.72C62.5206 63.24 60.848 62.18 58.9214 61.56C56.7195 60.86 54.2635 60.76 51.4477 61.26C51.0666 61.32 50.6643 61.42 50.2832 61.5L49.6057 61.68C48.8647 61.9 48.1449 62.16 47.4674 62.46C42.7037 64.66 41.7721 68.46 41.5816 70.02C41.4334 71.02 40.0996 75.24 39.3797 77.52C38.2576 81.08 38.0035 81.9 37.9189 82.6C37.4107 86.9 37.9824 93.5 39.5491 101.18C40.8406 107.54 43.3812 117.1 46.2394 123.18C48.166 127.3 51.9982 129.76 56.5078 129.76C57.2276 129.76 57.9475 129.7 58.6673 129.56C60.9115 129.14 63.1346 128.14 64.913 126.74C65.04 126.64 65.1459 126.54 65.2729 126.44C67.1572 127.14 69.6767 127.7 72.429 127.2C74.0169 126.92 75.4778 126.32 76.7057 125.46C79.1193 126.36 81.8505 126.62 84.4335 126.16C84.7722 126.1 85.3862 125.98 86.1484 125.74C93.2198 132.62 102.154 136.4 111.195 136.4C112.931 136.4 114.688 136.26 116.424 135.98C128.535 133.98 137.956 126.7 142.72 115.8C145.408 116.04 148.161 115.96 150.892 115.52C155.105 114.86 158.958 113.28 162.092 110.94C163.574 111.78 165.522 112.4 168.041 112.4C168.846 112.4 169.693 112.34 170.539 112.2C172.53 111.88 174.562 111.24 176.235 110.4C177.166 109.92 178.013 109.4 178.712 108.8C182.819 110.02 186.44 109.9 188.98 109.5C192.706 108.92 195.565 107.44 197.512 105.12C197.83 104.74 198.592 103.84 200.371 98.28C201.789 100.76 204.309 102.52 207.357 103.18C209.009 103.54 210.851 103.58 212.693 103.28C213.603 103.14 214.344 102.94 214.873 102.8L214.979 102.78C215.53 102.64 216.927 102.3 218.346 101.62C219.404 101.12 220.357 100.5 221.161 99.76C224.041 98.5 226.624 96.76 229.016 94.44L229.143 94.32C231.747 91.76 236.088 86.02 237.273 75.62C239.814 70.72 241.211 64.6 241.211 58.26C241.148 56.06 240.957 53.86 240.597 51.8ZM67.0937 74.52C67.0302 75.22 66.9667 75.98 66.9032 76.8L66.8608 77.36C66.5009 76.8 66.1621 76.24 65.8022 75.7C64.913 74.3 64.0873 72.98 63.3675 71.86C63.7062 71.56 64.0661 71.28 64.4684 71.02L67.7289 68.84C67.5171 70.26 67.3054 72.1 67.0937 74.52ZM71.6245 74.88C71.6245 74.96 71.6033 75.04 71.6033 75.14C71.6033 75.04 71.6245 74.96 71.6245 74.88C71.6245 74.78 71.6457 74.66 71.6457 74.54L71.6245 74.88ZM170.645 55.82C170.709 56.48 170.772 57.16 170.836 57.9L170.645 55.82ZM177.103 56.46C176.425 56.74 175.832 57.1 175.367 57.52C175.261 56.28 175.155 55.08 175.091 53.86L175.07 53.64L174.964 53.04C174.943 52.92 174.922 52.8 174.901 52.68C175.028 52.62 175.176 52.56 175.324 52.5L177.526 51.6C177.505 53.3 177.378 54.92 177.103 56.46ZM181.612 57.08C182.015 54.78 182.142 52.34 182.015 49.78L182.946 49.4L181.612 57.08ZM213.921 56.92C213.984 57.34 214.048 57.74 214.09 58.14C214.048 57.74 213.984 57.32 213.921 56.92ZM223.617 49.62C223.723 49.8 223.808 50 223.914 50.2C223.808 49.98 223.702 49.8 223.617 49.62Z" fill="white"/>
<path d="M67.0937 74.52C67.0302 75.22 66.9666 75.98 66.9031 76.8L66.8608 77.36C66.5009 76.8 66.1621 76.24 65.8022 75.7C66.1621 75.24 66.5855 74.84 67.0937 74.52Z" fill="white"/>
<path d="M67.7288 68.82C67.5171 70.26 67.3054 72.1 67.0937 74.52C67.0302 75.22 66.9667 75.98 66.9031 76.8L66.8608 77.36C66.5009 76.8 66.1621 76.24 65.8022 75.7C64.913 74.3 64.0873 72.98 63.3674 71.86C63.7062 71.56 64.0661 71.28 64.4684 71.02L67.7288 68.82Z" fill="white"/>
<path d="M71.6667 74.54L71.6456 74.88C71.6456 74.96 71.6245 75.04 71.6245 75.14C71.6245 75.06 71.6456 74.98 71.6456 74.9C71.6456 74.76 71.6456 74.66 71.6667 74.54Z" fill="white"/>
<path d="M182.967 49.4L182.036 49.78C182.163 52.34 182.015 54.78 181.634 57.08L182.967 49.4ZM175.324 52.5C175.176 52.56 175.049 52.62 174.901 52.68C174.922 52.8 174.943 52.92 174.964 53.04L175.07 53.64L175.091 53.86C175.176 55.08 175.261 56.3 175.367 57.52C175.832 57.1 176.404 56.74 177.103 56.46C177.378 54.92 177.505 53.3 177.505 51.62L175.324 52.5ZM170.667 55.8L170.836 57.88C170.772 57.16 170.73 56.48 170.667 55.8Z" fill="white"/>
<path opacity="0.58" d="M147.61 86.9H110.411C109.183 86.9 108.188 85.96 108.188 84.8V69.8C108.188 68.64 109.183 67.7 110.411 67.7H147.61C148.838 67.7 149.833 68.64 149.833 69.8V84.8C149.833 85.96 148.838 86.9 147.61 86.9Z" fill="black"/>
<path d="M78.4206 100.2C81.8928 120.24 98.8726 134.46 116.255 131.6C135.627 128.4 144.964 110.48 141.492 90.44C138.019 70.4 121.061 56.26 103.657 59.04C83.5654 62.26 74.9273 80.16 78.4206 100.2Z" fill="black" stroke="black" stroke-miterlimit="10"/>
<path d="M88.0538 119.82C86.6988 121.24 85.0051 121.62 84.1794 121.78C81.4482 122.28 78.3359 121.5 76.4516 119.82C76.4304 119.8 76.4304 119.8 76.4093 119.78C75.6259 121.34 74.1439 122.46 72.1961 122.82C70.1424 123.2 68.1734 122.58 66.8608 122C66.0774 121.66 65.3364 121.24 64.6801 120.76C64.3413 121.56 63.7273 122.42 62.6476 123.28C61.4408 124.22 59.9587 124.9 58.4555 125.18C58.0533 125.26 57.6086 125.3 57.164 125.3C54.941 125.3 52.4427 124.26 51.0454 121.28C48.3354 115.52 45.9006 106.32 44.6515 100.2C43.1906 93.02 42.619 86.72 43.0636 82.92C43.1694 81.98 46.4934 72.44 46.7263 70.36C46.8322 69.42 47.4038 67.42 50.0926 66.18C50.5796 65.96 51.0877 65.78 51.5535 65.64C51.7229 65.6 51.8711 65.56 52.0404 65.5C52.358 65.42 52.6544 65.36 52.9085 65.32C54.9622 64.94 56.5924 65 58.0533 65.46C59.5988 65.96 60.8479 66.88 61.843 68.3L61.9065 68.4C62.3935 69.12 64.2354 72.06 66.4373 75.52C66.7761 76.06 67.136 76.62 67.4959 77.18L67.5383 76.62C67.6018 75.82 67.6653 75.06 67.7288 74.34C68.5545 65.32 69.2532 64.18 69.7825 63.38C70.7564 61.88 72.556 60.86 74.9908 60.4C75.3295 60.34 76.1129 60.22 77.1079 60.18H77.2773C79.2463 60.12 81.9351 60.38 83.7136 62.02C84.7086 62.94 85.1321 64.04 85.8096 66.7C86.1907 68.2 86.6776 70.24 87.2493 72.94C88.3079 77.8 89.5147 83.82 90.5733 89.14C90.9967 91.28 91.399 93.28 91.7589 95C92.3729 98 93.008 101.08 93.1562 101.64L93.1986 101.78L93.2621 102.12C93.3891 102.54 90.0016 117.76 88.0538 119.82Z" fill="black"/>
<path d="M67.7712 74.3C67.7076 75 67.6441 75.76 67.5806 76.58L67.5383 77.14C67.1783 76.58 66.8396 76.02 66.4797 75.48C66.8184 75.04 67.263 74.64 67.7712 74.3Z" fill="black"/>
<path d="M176.044 57.32C176.15 58.54 176.277 59.76 176.425 61C177.039 59.52 177.484 57.94 177.78 56.26C177.081 56.54 176.51 56.9 176.044 57.32ZM221.119 54.18C220.801 52.4 220.314 51.44 220.124 51.18C219.955 51.16 219.552 51.14 218.705 51.26C218.642 51.28 218.557 51.28 218.494 51.3C218.832 54.3 219.341 57.96 219.806 60.54C219.955 61.38 220.166 62.54 220.399 63.88C221.331 61.28 221.733 57.78 221.119 54.18Z" fill="black"/>
<path d="M236.765 52.3C235.855 47.12 233.759 42.98 230.689 40.3C225.565 35.72 217.393 36.38 211.698 37.26C208.098 37.82 204.076 38.98 200.688 40.42C200.561 40.48 200.455 40.52 200.328 40.58C199.397 39.38 197.872 38.64 196.136 38.64C195.755 38.64 195.374 38.68 194.993 38.74C192.6 39.16 190.589 40.84 189.044 43.74C187.096 43.08 184.915 42.92 183.179 43.2C179.41 43.8 177.907 46.46 178.077 48.7C178.288 51.38 178.182 53.9 177.78 56.24C177.484 57.92 177.039 59.5 176.425 60.98C176.277 59.74 176.15 58.52 176.044 57.3C175.938 56.08 175.832 54.86 175.769 53.64L175.748 53.42L175.642 52.8C175.24 50.5 173.715 48.4 171.45 47.04C169.375 45.8 166.919 45.28 164.696 45.64C163.489 45.82 162.494 46.2 161.626 46.76C161.351 46.94 161.076 47.16 160.843 47.38C160.8 47.36 160.737 47.36 160.694 47.34C159.191 47.04 157.603 47.02 155.931 47.28C152.543 47.82 148.986 49.56 145.366 52.46C142.148 55.06 139.586 57.98 137.998 59.98L137.977 60C136.072 62.46 134.441 65.5 133.404 68.58C132.769 70.46 132.112 73.08 132.197 75.68C131.202 77.4 130.355 79.26 129.72 81.14C128.958 83.44 128.132 86.86 128.704 90C128.958 91.44 129.529 92.76 130.334 93.82L130.355 93.86C131.414 95.2 132.684 96.28 134.187 97.12C132.218 98.24 131.16 100.52 131.604 103.08C131.625 103.26 132.367 107.22 135.013 108.86C136.41 109.72 140.581 111.44 146.298 111.44C147.695 111.44 149.177 111.34 150.744 111.1C155.656 110.32 159.911 108.06 162.727 104.7C163.172 105.56 164.717 107.94 168.634 107.94C169.163 107.94 169.756 107.9 170.391 107.8C171.916 107.56 173.44 107.08 174.689 106.44C175.409 106.08 176.044 105.66 176.531 105.22C177.124 104.68 177.547 104.08 177.823 103.42C182.205 105.52 186.185 105.52 188.832 105.1C191.436 104.7 193.299 103.78 194.548 102.28C195.395 101.28 199.968 86.98 199.524 84.44C199.227 82.74 198.084 81.36 196.369 80.68C195.522 80.34 194.718 80.24 193.998 80.14C192.579 79.94 190.949 79.74 188.62 77.68C188.451 77.54 188.281 77.36 188.112 77.16C188.705 75.64 189.255 73.94 189.7 72.06C190.081 72.12 190.483 72.14 190.886 72.14C191.436 72.14 192.008 72.1 192.558 72C193.469 71.84 196.2 71.36 197.851 68.98C198.063 70.78 198.338 72.64 198.677 74.54C199.757 80.62 201.98 89.82 204.795 95.72L204.817 95.78C205.579 97.34 207.061 98.44 208.988 98.84C209.559 98.96 210.173 99.02 210.829 99.02C211.38 99.02 211.952 98.98 212.544 98.88C213.222 98.78 213.772 98.62 214.259 98.5L214.408 98.46C214.852 98.34 215.89 98.1 216.906 97.62C217.732 97.22 218.43 96.74 218.959 96.16C219.002 96.12 219.044 96.06 219.087 96.02C221.246 95.16 223.723 93.82 226.37 91.28L226.391 91.26C230.604 87.16 232.827 80.64 233.42 74.24C236.066 69.54 237.252 63.58 237.252 58.1C237.252 56.08 237.083 54.1 236.765 52.3ZM216.715 76.46C216.461 75.12 216.271 73.94 216.122 73.12C215.678 70.54 215.149 66.9 214.81 63.88C214.873 63.86 214.958 63.86 215.022 63.84C215.847 63.72 216.271 63.74 216.44 63.76C216.631 64.02 217.139 64.98 217.435 66.76C218.07 70.34 217.647 73.84 216.715 76.46ZM220.399 63.88C220.145 62.54 219.955 61.36 219.806 60.54C219.362 57.96 218.832 54.32 218.494 51.3C218.557 51.28 218.642 51.28 218.705 51.26C219.531 51.14 219.955 51.16 220.124 51.18C220.314 51.44 220.823 52.4 221.119 54.18C221.733 57.78 221.331 61.28 220.399 63.88Z" fill="black"/>
<path d="M217.435 66.76C217.118 64.98 216.631 64.02 216.44 63.76C216.271 63.74 215.868 63.72 215.022 63.84C214.958 63.86 214.873 63.86 214.81 63.88C215.149 66.88 215.657 70.54 216.122 73.12C216.271 73.96 216.482 75.12 216.715 76.46C217.647 73.84 218.07 70.34 217.435 66.76Z" fill="black"/>
<path d="M89.1336 103.02C89.3877 104.32 88.2444 105.14 87.1011 105.36C85.6826 105.62 84.01 105.2 83.142 104.42C82.5492 103.9 79.2464 89.3 78.2089 84.58C77.4467 90 76.4305 99.8001 76.4093 104.78C76.4093 105.82 75.8377 106.28 75.0967 106.42C73.5723 106.7 71.1799 105.48 70.0789 104.34C69.1897 103.46 64.5531 95.46 60.0858 87.8C60.5728 90.5 61.0174 93.22 61.5678 95.9C62.3089 99.54 63.2192 103.16 64.4049 106.6C64.5107 107.1 63.1346 108.44 61.335 108.76C59.9588 109 59.2178 108.26 58.7308 107.22C56.1267 101.7 53.7978 92.66 52.6333 87.02C51.0878 79.44 50.7702 73.8 51.1089 70.96C51.1724 70.18 52.718 69.68 53.8189 69.48C56.4654 69 57.5028 69.54 58.3497 70.72C59.4507 72.38 68.851 87.32 71.2857 91.22C71.1164 85.86 72.4502 67.36 73.5723 65.66C73.911 65.14 74.8638 64.76 75.9224 64.56C77.7643 64.22 80.0509 64.38 80.7919 65.08C81.7446 65.94 85.5344 85.68 87.6304 95.9C88.3714 99.5 88.9007 102.14 89.0913 102.82C89.1124 102.92 89.1336 102.96 89.1336 103.02Z" fill="white"/>
<path d="M164.061 56.86C165.141 62.94 162.325 72.12 161.266 72.96C161.033 73.16 160.716 73.26 160.335 73.32C157.985 73.68 153.221 71.8 152.946 70.14C152.903 69.88 152.924 69.68 153.094 69.44C154.745 67.06 158.154 59.92 157.815 58.06C157.752 57.7 157.561 57.54 157.244 57.58C155.444 57.86 150.236 64.1 148.69 66.16C146.022 69.68 144.329 73.36 144.604 74.92C144.773 75.92 145.366 76.2 152.31 75.56C159.191 74.94 164.611 76.52 165.458 81.3C166.517 87.34 161.965 93.42 153.771 94.7C147.166 95.74 142.169 93.74 141.132 93.06C140.581 92.74 139.819 91.24 139.607 90.04C139.459 89.24 139.629 88.28 140.475 88.14C140.645 88.12 140.857 88.14 141.089 88.2C143.207 88.7 146.509 88.8 150.109 88.22C155.486 87.38 160.44 83.86 160.102 81.94C159.488 79.36 143.672 86.8 137.554 79.02C137.13 78.46 136.834 77.74 136.686 76.94C136.029 73.16 138.104 66.96 141.492 62.6C144.943 58.24 150.85 52.4 156.651 51.48C157.709 51.32 158.81 51.3 159.827 51.5C162.346 52.02 163.595 54.14 164.061 56.86Z" fill="white"/>
<path d="M181.443 73.28C181.761 74.46 183.348 78.76 185.741 80.88C191.246 85.7 195.014 83.56 195.332 85.32C195.607 86.82 195.078 88.2 191.881 88.7C189.594 89.06 186.291 88.96 182.713 86.98C179.813 85.42 176.192 81.02 175.007 78.64C175.832 82.7 176.743 86.94 177.547 89.4C177.653 89.96 175.705 91.04 173.419 91.4C172.043 91.62 170.794 91.44 170.37 90.58C167.808 85.3 165.628 76.66 164.611 70.92C163.172 62.68 162.896 54.3 163.468 51.32C163.637 50.42 164.442 50.04 165.458 49.88C167.851 49.5 170.984 51.18 171.429 53.7C171.45 53.86 171.471 53.96 171.492 54.1C171.873 59.98 172.614 65.8 173.652 71.64C176.341 70.08 183.56 62.96 182.459 48.62C182.417 48 183.052 47.6 183.941 47.46C186.185 47.1 189.573 48.02 189.848 49.58C191.055 62.56 182.967 72.26 181.443 73.28Z" fill="white"/>
<path d="M195.84 42.92C196.327 42.84 196.877 42.9 196.962 43.34C197.174 44.44 195.099 47.24 195.289 48.14C195.332 48.4 195.48 48.52 195.798 48.52C197.216 48.52 197.999 49.42 198.275 50.72C198.952 54.12 197.83 55.16 195.501 55.56C193.638 55.88 191.711 55.24 191.267 53C191.224 52.8 191.203 52.64 191.161 52.5C190.949 49.76 193.193 43.4 195.84 42.92Z" fill="white"/>
<path d="M232.573 53.12C234.013 61.32 231.832 71.32 227.026 76C224.274 78.66 221.924 79.64 219.701 80.36C219.891 81.46 217.478 82 216.948 82.14C216.482 82.26 216.059 82.38 215.572 82.46C214.238 82.66 212.904 82.52 212.481 81.66C209.877 76.18 207.696 67.18 206.701 61.5C206.045 57.72 205.685 54.42 205.515 51.66C205.156 51.82 204.838 51.86 204.584 51.92C204.478 51.94 198.529 50.18 198.063 47.46C197.809 46 205.452 42.58 212.481 41.48C218.451 40.54 224.443 40.42 227.809 43.46C230.308 45.62 231.874 49.16 232.573 53.12ZM218.049 47.4C216.779 47.6 215.36 47.98 213.899 48.36C214.132 51.58 214.937 57.66 215.593 61.38C216.017 63.8 216.864 68.56 217.795 72.92C218.748 72.46 219.383 72.26 221.14 70.74C225.417 67.12 226.433 59.22 225.459 53.68C225.057 51.36 224.274 49.48 223.279 48.5C222.008 47.2 220.188 47.06 218.049 47.4Z" fill="white"/>
<path d="M83.3113 87.26C86.8894 107.9 103.107 122.74 119.473 120.02C137.702 117 146.234 98.7 142.656 78.06C139.078 57.42 122.86 42.66 106.495 45.3C87.6092 48.34 79.7333 66.62 83.3113 87.26Z" fill="black" stroke="black" stroke-miterlimit="10"/>
<path d="M87.0588 87.78C90.3192 106.54 104.822 120.08 119.388 117.66C135.627 114.96 143.164 98.36 139.904 79.58C136.643 60.8 122.162 47.34 107.574 49.7C90.7427 52.4 83.7983 69 87.0588 87.78Z" fill="white" stroke="black" stroke-miterlimit="10"/>
<path d="M145.853 86.68C145.853 86.68 140.179 86.94 131.583 87.98C130.249 84.7 128.683 81.16 126.904 77.48C137.13 76.34 148.648 75.9 161.097 76.74L158.704 67.46L147.737 70C147.737 70 137.702 70.06 124.004 71.72C120.595 65.3 116.551 58.72 111.83 52.66C113.735 46.7 115.323 43.38 115.323 43.38L108.718 41.38C107.955 43.04 107.236 44.72 106.558 46.44C105.732 45.54 104.885 44.66 104.017 43.82L98.0258 47.88C98.0258 47.88 100.355 50.14 103.848 54.46C101.773 61.64 100.418 69.06 99.5501 76.06C91.1237 78.1 82.6338 80.84 75.0331 84.5L77.6372 90.24C77.6372 90.24 85.4073 86.42 98.8515 82.8C98.4915 87.02 98.301 90.96 98.2163 94.52C89.8111 96.9 81.3423 99.98 73.8475 103.96L76.6845 109.58C76.6845 109.58 84.5181 105.36 98.1528 101.14C98.1951 107.2 98.4915 110.98 98.4915 110.98L96.5649 121.5L107.13 123.04C105.711 114.62 105.076 106.62 104.991 99.16C111.301 97.48 118.541 95.92 126.544 94.76C129.402 102.52 131.858 111.14 133.467 120.58L143.545 115.7L138.019 106.4C138.019 106.4 136.664 101.38 133.87 93.88C141.809 93.04 150.384 92.66 159.488 92.92L156.693 83.74L145.853 86.68ZM109.268 61.68C111.491 64.86 113.883 68.56 116.276 72.78C113.185 73.26 109.988 73.82 106.727 74.46C107.468 69.74 108.336 65.46 109.268 61.68ZM105.055 92.72C105.182 88.62 105.478 84.72 105.881 81.04C110.009 80.1 114.519 79.22 119.388 78.48C121.061 81.74 122.712 85.24 124.279 88.98C118.435 89.86 111.851 91.08 105.055 92.72Z" fill="#FF0000"/>
<path d="M108.188 114.46C111.682 115.86 115.323 116.46 119.007 115.84C133.891 113.36 140.729 97.66 137.638 79.88C135.775 69.14 130.165 60.2 123.051 55.28C127.624 60.08 129.72 67.7 128.217 74.08C124.406 77.02 122.564 78.82 119.409 82.1C116.699 84.92 119.409 89.02 126.587 87.12C127.37 86.92 132.43 84.26 133.425 81.36C134.653 77.8 131.816 73.84 132.113 74.02C134.865 75.78 136.537 82.22 134.95 84.12C132.959 86.52 129.678 89.08 122.924 90.04C126.841 93.58 127.179 96.9 127.222 97.94C127.539 105.7 116.996 110.98 115.747 111.6C114.54 112.2 113.481 112.6 112.761 112.86C111.216 113.52 109.586 114.1 108.188 114.46Z" fill="black"/>
<path d="M89.9805 85.2C89.9805 85.2 90.4674 85.24 90.3192 84.7C90.171 84.16 89.4724 82.46 91.1026 82.2C91.5049 82.2 91.8436 82.2 91.8436 82.2C91.8436 82.2 91.1873 86.14 92.4788 87.96C93.7491 89.78 95.0406 91.76 97.7294 91.88C100.418 92 104.039 92.02 106.325 90.98C108.612 89.92 109.353 87.58 109.078 86.78C108.802 85.98 107.786 85.1 104.208 83.74C100.63 82.38 98.1105 81.28 95.5699 81.1C93.0292 80.92 89.8323 81.12 89.2818 81.44C88.7314 81.76 88.7949 82.46 88.9007 83.1C89.0066 83.74 89.2183 84.72 89.9805 85.2Z" fill="black"/>
<path d="M116.17 96.9C117.035 96.9 117.737 96.2374 117.737 95.42C117.737 94.6026 117.035 93.94 116.17 93.94C115.305 93.94 114.603 94.6026 114.603 95.42C114.603 96.2374 115.305 96.9 116.17 96.9Z" fill="black"/>
<path d="M121.717 102.4C122.582 102.4 123.284 101.737 123.284 100.92C123.284 100.103 122.582 99.44 121.717 99.44C120.852 99.44 120.15 100.103 120.15 100.92C120.15 101.737 120.852 102.4 121.717 102.4Z" fill="black"/>
<path d="M112.126 103.88C112.992 103.88 113.693 103.217 113.693 102.4C113.693 101.583 112.992 100.92 112.126 100.92C111.261 100.92 110.56 101.583 110.56 102.4C110.56 103.217 111.261 103.88 112.126 103.88Z" fill="black"/>
<path d="M103.636 109.1C104.502 109.1 105.203 108.437 105.203 107.62C105.203 106.803 104.502 106.14 103.636 106.14C102.771 106.14 102.07 106.803 102.07 107.62C102.07 108.437 102.771 109.1 103.636 109.1Z" fill="black"/>
<path d="M107.045 78.84C107.91 78.84 108.612 78.1774 108.612 77.36C108.612 76.5426 107.91 75.88 107.045 75.88C106.18 75.88 105.478 76.5426 105.478 77.36C105.478 78.1774 106.18 78.84 107.045 78.84Z" fill="black"/>
<path d="M116.784 77.36C117.649 77.36 118.351 76.6974 118.351 75.88C118.351 75.0626 117.649 74.4 116.784 74.4C115.919 74.4 115.217 75.0626 115.217 75.88C115.217 76.6974 115.919 77.36 116.784 77.36Z" fill="black"/>
<path d="M97.2001 75.72C98.0654 75.72 98.7668 75.0574 98.7668 74.24C98.7668 73.4226 98.0654 72.76 97.2001 72.76C96.3348 72.76 95.6334 73.4226 95.6334 74.24C95.6334 75.0574 96.3348 75.72 97.2001 75.72Z" fill="black"/>
<path d="M125.38 70.86C126.245 70.86 126.947 70.1974 126.947 69.38C126.947 68.5626 126.245 67.9 125.38 67.9C124.515 67.9 123.813 68.5626 123.813 69.38C123.813 70.1974 124.515 70.86 125.38 70.86Z" fill="black"/>
<path d="M98.4069 68.36C99.2721 68.36 99.9736 67.6974 99.9736 66.88C99.9736 66.0626 99.2721 65.4 98.4069 65.4C97.5416 65.4 96.8401 66.0626 96.8401 66.88C96.8401 67.6974 97.5416 68.36 98.4069 68.36Z" fill="black"/>
<path d="M121.548 64.44C122.413 64.44 123.114 63.7774 123.114 62.96C123.114 62.1426 122.413 61.48 121.548 61.48C120.682 61.48 119.981 62.1426 119.981 62.96C119.981 63.7774 120.682 64.44 121.548 64.44Z" fill="black"/>
<path d="M132.07 104.14C132.07 105.06 131.287 105.8 130.313 105.8C129.339 105.8 128.556 105.06 128.556 104.14C128.556 104.12 128.556 104.08 128.556 104.06C128.598 104.84 129.276 105.44 130.122 105.44C130.99 105.44 131.689 104.78 131.689 103.96C131.689 103.18 131.033 102.54 130.228 102.48C130.249 102.48 130.292 102.48 130.313 102.48C131.287 102.48 132.07 103.22 132.07 104.14Z" fill="white"/>
<path d="M125.507 110.96C125.507 111.88 124.724 112.62 123.75 112.62C122.776 112.62 121.992 111.88 121.992 110.96C121.992 110.94 121.992 110.9 121.992 110.88C122.035 111.66 122.712 112.26 123.559 112.26C124.427 112.26 125.126 111.6 125.126 110.78C125.126 110 124.469 109.36 123.665 109.3C123.686 109.3 123.728 109.3 123.75 109.3C124.724 109.3 125.507 110.04 125.507 110.96Z" fill="white"/>
<path d="M116.509 113.08C116.509 114 115.725 114.74 114.752 114.74C113.778 114.74 112.994 114 112.994 113.08C112.994 113.06 112.994 113.02 112.994 113C113.037 113.78 113.714 114.38 114.561 114.38C115.429 114.38 116.128 113.72 116.128 112.9C116.128 112.12 115.471 111.48 114.667 111.42C114.688 111.42 114.73 111.42 114.752 111.42C115.725 111.44 116.509 112.18 116.509 113.08Z" fill="white"/>
<path d="M114.561 114.38C115.426 114.38 116.128 113.717 116.128 112.9C116.128 112.083 115.426 111.42 114.561 111.42C113.696 111.42 112.994 112.083 112.994 112.9C112.994 113.717 113.696 114.38 114.561 114.38Z" fill="black"/>
</svg>
